<svg width="137.71mm" height="78.784mm" version="1.1" viewBox="0 0 137.71 78.784" xmlns="http://www.w3.org/2000/svg">
 <g transform="translate(-36.896 -61.621)">
  <path d="m92.133 61.621v3.5049h2.2669v-3.5049zm-42.736 0.61758v19.124h1.8804v-7.8614h2.6804c2.8697 0 4.3048-1.4352 4.3048-4.3049v-2.6533c0-2.8697-1.4352-4.3049-4.3048-4.3049zm80.005 1.6491v4.0218h-3.2711v1.6761h3.2711v7.8615c0 1.4262 0.27717 2.4383 0.82701 3.0397 0.56701 0.5847 1.5544 0.87627 2.9634 0.87627h2.449v-1.6491h-2.0626c-0.89355 0-1.5122-0.18864-1.8558-0.5667-0.3437-0.37806-0.51441-1.0661-0.51441-2.0626v-7.4997h4.4845v-1.6761h-4.4845v-4.0218zm-78.125 0.10332h2.6804c1.6324 0 2.449 0.89333 2.449 2.6805v2.3726c0 1.7871-0.81656 2.6804-2.449 2.6804h-2.6804zm16.264 3.6871c-1.3747 0-2.4833 0.60114-3.3253 1.8042v-1.5727h-1.6737v13.454h1.8042v-9.4834c0.13745-0.68723 0.48146-1.2812 1.0313-1.7795 0.54987-0.51582 1.1586-0.77255 1.8288-0.77255 1.6153 0 2.422 0.90076 2.422 2.7051v0.28569h1.7795v-0.64497c0-2.6635-1.2892-3.9947-3.8667-3.9947zm11.804 0c-1.4434 0-2.5421 0.39293-3.2982 1.184-0.75612 0.77334-1.1347 1.8471-1.1347 3.2218v5.1048c0 1.3747 0.37861 2.4561 1.1347 3.2465 0.75604 0.77334 1.8548 1.1616 3.2982 1.1616 1.4434 0 2.5445-0.38823 3.3006-1.1616 0.75612-0.79048 1.1347-1.8718 1.1347-3.2465v-5.1048c0-1.3747-0.3786-2.4485-1.1347-3.2218-0.75612-0.79048-1.8572-1.184-3.3006-1.184zm25.777 0c-1.4434 0-2.5446 0.39293-3.3006 1.184-0.75604 0.77334-1.1347 1.8471-1.1347 3.2218v5.1048c0 1.3747 0.3786 2.4561 1.1347 3.2465 0.75611 0.77334 1.8572 1.1616 3.3006 1.1616 1.4434 0 2.5421-0.38823 3.2982-1.1616 0.75612-0.79048 1.1347-1.8718 1.1347-3.2465v-0.335h-1.7525v0.30761c0 1.8901-0.89328 2.8354-2.6804 2.8354-1.7871 0-2.6804-0.96253-2.6804-2.8871v-2.2423h7.1132v-2.7837c0-1.3747-0.37861-2.4486-1.1347-3.2219-0.75604-0.79048-1.8548-1.184-3.2982-1.184zm12.887 0c-1.4434 0-2.5446 0.39293-3.3006 1.184-0.75612 0.77334-1.1322 1.8471-1.1322 3.2218v5.1048c0 1.3747 0.37618 2.4561 1.1322 3.2465 0.75612 0.77334 1.8572 1.1616 3.3006 1.1616 1.4434 0 2.5421-0.37884 3.2982-1.1346 0.75612-0.77334 1.1347-1.8299 1.1347-3.1703v-0.38589h-1.7795v0.33501c0 1.8043-0.8834 2.705-2.6533 2.705s-2.6558-0.9601-2.6558-2.8846v-4.8464c0-1.9246 0.88586-2.8872 2.6558-2.8872s2.6533 0.88347 2.6533 2.6533v0.2583h1.7795v-0.28256c0-1.3404-0.37861-2.3895-1.1347-3.1456-0.75612-0.75612-1.8548-1.1322-3.2982-1.1322zm-30.08 0.23169v1.6761h4.4328v10.104c0 1.2028-0.33407 2.0269-1.0042 2.4736-0.65296 0.44694-1.7789 0.67941-3.3769 0.69663l0.0368 1.4966c2.0449-0.0235 3.7263-0.17377 4.6027-0.77569 1.0482-0.72168 1.5703-1.9838 1.5703-3.788v-11.883zm17.192 1.366c1.7871 0 2.6804 0.96252 2.6804 2.8872v1.2355h-5.3608v-1.2355c0-1.9247 0.89328-2.8872 2.6804-2.8872zm-25.777 0.0548c1.7699 0 2.6558 0.96268 2.6558 2.8872v4.8464c0 1.9245-0.88585 2.8847-2.6558 2.8847-1.7699 0-2.6533-0.96018-2.6533-2.8847v-4.8464c0-1.9245 0.8834-2.8872 2.6533-2.8872zm76.286 17.842c-9.3223 7e-3 -17.391 6.4888-19.42 15.588h8.9395c1.7534-4.2419 5.8904-7.01 10.48-7.0123 3.8992 1e-3 7.5237 2.0057 9.5992 5.3066h9.3776c-2.63-8.2645-10.304-13.879-18.977-13.882zm-19.42 15.588c-9.5826-3.8272-17.244-7.0386-26.634-7.2782-0.67745-0.0156-1.3495-0.0156-2.0158 3e-3 -2.6408 0.0704-5.102 0.43363-7.384 1.0831-2.2674 0.63793-4.2185 1.629-5.853 2.9732-2.087 1.7163-2.8635 3.4724-2.3334 5.2722 0.55465 1.8069 2.3747 3.7326 5.4592 5.7767 1.2191 0.79705 2.3337 1.5562 3.3474 2.2767 1.0137 0.72089 1.8162 1.3958 2.4096 2.0257 1.2614 1.3268 1.1461 2.2379 0.32241 3.4163-1.3642 1.0092-3.0339 1.1204-4.5141 1.2158-1.0105 0.0156-2.1561-0.0806-3.4409-0.27865-1.2604-0.19021-2.6367-0.5033-4.1276-0.94022-3.8792-1.1601-7.1226-2.8357-10.53-4.4821v-7.9623h-18.869v6.2886h6.2911v12.577h-12.58v-6.2887h-6.2887v-18.868h6.2887v-2.7838l75.216-6.0843h-81.504v6.0843h-6.2887v2.7838h-6.2887v18.868h6.2887v6.2887h6.2887v6.2887h118.06v-3.2047h-86.614v-6.6234c4.5835 1.7271 9.4648 3.0272 13.956 3.788 2.8629 0.48138 5.6143 0.70055 8.2504 0.65985 2.6507-0.0548 5.1168-0.40389 7.3987-1.0534 2.321-0.65437 4.3577-1.7005 6.109-3.1406 1.2697-1.0442 2.0596-2.0512 2.3727-3.0177 0.32773-0.97834 0.26629-1.9484-0.18707-2.9117-0.45328-0.96323-1.2331-1.9322-2.3358-2.9069-1.0636-0.97927-2.3837-1.9938-3.9603-3.0422-1.1603-0.76317-2.1753-1.4679-3.0471-2.1142-0.85719-0.65828-1.5326-1.2607-2.0232-1.8116-0.47598-0.56279-0.73929-1.0833-0.795-1.5555-0.0407-0.48373 0.20077-0.9414 0.72606-1.3735 0.48153-0.39606 1.12-0.68881 1.9149-0.87862 0.80952-0.20194 1.7316-0.30918 2.7665-0.31544 6.4623 7e-3 24.141 9.9169 24.141 9.9169 2.0298 9.1022 10.102 15.578 19.427 15.585 8.6661-7e-3 16.332-5.6238 18.96-13.882h-9.3678c-2.0745 3.2971-5.6964 5.2998-9.5918 5.3041-4.5859-5e-3 -8.7175-2.7697-10.47-7.0073h11.546zm-64.868 30.013v7.5021h1.5654v-7.5021zm89.368 0.0235c-0.26401 0-0.48153 0.0704-0.64982 0.22151-0.16829 0.14872-0.25102 0.33892-0.25102 0.57374 0 0.22699 0.0827 0.42268 0.25102 0.58079 0.16829 0.15498 0.38589 0.23169 0.64982 0.23169 0.26723 0 0.48232-0.0783 0.64732-0.22621 0.16829-0.15185 0.25353-0.34832 0.25353-0.58549 0-0.23403-0.0852-0.42502-0.25353-0.57374-0.165-0.14872-0.38009-0.22151-0.64732-0.22151zm-104.48 0.26143c-1.1945 0-2.1506 0.35066-2.8699 1.0534-0.71933 0.70289-1.0805 1.6119-1.0805 2.7272 0 1.1087 0.32789 1.9804 0.98453 2.6139 0.65992 0.6301 1.5609 0.94515 2.7025 0.94515 1.0295 0 1.8915-0.19881 2.5844-0.59801v-3.5689h-3.02v1.2774h1.4226v1.3858c-0.22441 0.1088-0.52787 0.1628-0.91069 0.1628-0.63683 0-1.1449-0.19881-1.5211-0.598-0.37282-0.3992-0.55871-0.96417-0.55871-1.6934 0-0.71933 0.20695-1.2915 0.62266-1.7204 0.41907-0.43207 0.96126-0.64966 1.6245-0.64966 0.7919 0 1.4607 0.15811 2.0084 0.47433v-1.4989c-0.57413-0.20821-1.2364-0.31309-1.9887-0.31309zm40.718 0c-0.37618 0-0.73162 0.0391-1.0682 0.12289-0.33658 0.0791-0.63362 0.20585-0.891 0.37649-0.25407 0.17142-0.45453 0.39293-0.60302 0.65984-0.14848 0.26378-0.22394 0.58001-0.22394 0.95008 0 0.47199 0.13557 0.87283 0.40616 1.206 0.2738 0.33345 0.68865 0.61601 1.243 0.84668 0.21776 0.0892 0.41986 0.17768 0.60795 0.263 0.18809 0.0861 0.34957 0.17299 0.4849 0.26535 0.13854 0.0924 0.24813 0.19333 0.32734 0.30292 0.0792 0.1088 0.11819 0.23325 0.11819 0.37179 0 0.10254-0.0243 0.19882-0.0736 0.28805-0.0493 0.0861-0.12421 0.16046-0.22644 0.22699-0.0989 0.0626-0.2248 0.11193-0.37657 0.14715-0.14849 0.0391-0.32296 0.0626-0.52428 0.0626-0.34314 0-0.68488-0.0626-1.0214-0.18003-0.33658-0.1221-0.64818-0.30291-0.93531-0.54399v1.5847c0.25736 0.13229 0.56098 0.23169 0.91069 0.29744 0.35309 0.0626 0.72559 0.0986 1.115 0.0986 0.37947 0 0.7382-0.0313 1.0781-0.10802 0.34315-0.0705 0.64348-0.19177 0.90085-0.35693 0.25736-0.16828 0.46189-0.38745 0.61037-0.65514 0.15177-0.27004 0.22644-0.60349 0.22644-0.99924 0-0.28726-0.0423-0.53617-0.12797-0.75064-0.0858-0.2176-0.20993-0.4125-0.37164-0.58078-0.16164-0.16751-0.35568-0.31779-0.5833-0.45086-0.2244-0.13541-0.47926-0.26299-0.763-0.38119-0.20789-0.0869-0.39364-0.1675-0.55872-0.24656-0.16499-0.083-0.30542-0.16594-0.42087-0.2489-0.11553-0.0861-0.20562-0.17299-0.26832-0.26613-0.0626-0.0955-0.0935-0.2043-0.0935-0.32249 0-0.1088 0.0274-0.20664 0.0837-0.29274 0.0563-0.0892 0.13651-0.16359 0.23873-0.22621 0.10223-0.0626 0.22809-0.10958 0.37657-0.14246 0.14849-0.0391 0.31325-0.0548 0.49477-0.0548 0.13197 0 0.27082 7e-3 0.41594 0.0235 0.14848 0.0235 0.29705 0.0548 0.44553 0.0932 0.14849 0.0391 0.28969 0.0924 0.42831 0.15498 0.14191 0.0626 0.27255 0.13385 0.39129 0.21682v-1.4793c-0.24085-0.0924-0.50298-0.16124-0.79008-0.20429-0.28374-0.047-0.61249-0.0704-0.98207-0.0704zm35.354 0c-1.1186 0-2.0292 0.35457-2.7321 1.0608-0.69953 0.70603-1.0485 1.6265-1.0485 2.7616 0 1.0658 0.31168 1.9172 0.9353 2.5573 0.6236 0.63949 1.4808 0.95994 2.5696 0.95994 0.8348 0 1.5101-0.12524 2.0281-0.37649v-1.4592c-0.51809 0.3037-1.0894 0.45555-1.7131 0.45555-0.65327 0-1.172-0.20195-1.558-0.60818-0.38605-0.40937-0.57844-0.95783-0.57844-1.6441 0-0.7162 0.20367-1.2817 0.61288-1.7008 0.40913-0.41876 0.94564-0.6301 1.6122-0.6301 0.60716 0 1.1493 0.14246 1.6245 0.42581v-1.5383c-0.4752-0.17533-1.0596-0.26378-1.7525-0.26378zm-48.899 0.61053-1.5605 0.44537v1.0928h-0.82208v1.1544h0.82208v2.321c0 1.1449 0.55191 1.7155 1.654 1.7155 0.46525 0 0.81263-0.0626 1.0436-0.18159v-1.1568c-0.17486 0.0955-0.34448 0.14246-0.50948 0.14246-0.41908 0-0.62767-0.26535-0.62767-0.7926v-2.0478h1.1371v-1.1544h-1.1371zm81.327 0-1.558 0.44537v1.0928h-0.82209v1.1544h0.82209v2.321c0 1.1449 0.5519 1.7155 1.654 1.7155 0.46525 0 0.81262-0.0626 1.0436-0.18159v-1.1568c-0.17479 0.0955-0.34448 0.14246-0.50948 0.14246-0.41908 0-0.6301-0.26535-0.6301-0.7926v-2.0478h1.1396v-1.1544h-1.1396zm-88.613 1.4128c-0.28703 0-0.56466 0.0313-0.83193 0.0931-0.26402 0.0626-0.50095 0.15577-0.70884 0.28805-0.20461 0.12915-0.36937 0.29509-0.49476 0.49938-0.12211 0.20429-0.18214 0.44929-0.18214 0.73342 0 0.20742 0.02661 0.38745 0.07882 0.53852 0.05636 0.15185 0.13651 0.2857 0.23873 0.40154 0.10559 0.11506 0.23224 0.21917 0.38393 0.30761 0.15506 0.0861 0.33532 0.16516 0.53656 0.24108 0.12539 0.047 0.25353 0.0955 0.38894 0.13542 0.13533 0.0391 0.25948 0.083 0.37164 0.13306 0.11545 0.047 0.21048 0.10645 0.28311 0.1722 0.07279 0.0626 0.10833 0.1495 0.10833 0.24891 0 0.15498-0.07953 0.27083-0.24116 0.34675-0.15835 0.0783-0.37751 0.1135-0.65468 0.1135-0.2277 0-0.4712-0.0391-0.72857-0.1135-0.25407-0.0783-0.50815-0.19177-0.76551-0.34675v1.2652c0.4752 0.17142 0.99055 0.2583 1.5482 0.2583 0.30354 0 0.59574-0.0313 0.87623-0.0932 0.28374-0.0626 0.53382-0.15576 0.74821-0.28804 0.21776-0.13541 0.39066-0.30761 0.51934-0.51973 0.13197-0.21447 0.19694-0.47277 0.19694-0.77256 0-0.21447-0.03209-0.39841-0.09847-0.55417-0.06262-0.15498-0.15357-0.29118-0.27568-0.40624-0.11874-0.11585-0.26245-0.2176-0.43066-0.30292-0.16829-0.0861-0.35826-0.16359-0.56615-0.2356-0.11553-0.0391-0.23075-0.0783-0.34949-0.1135-0.11553-0.0391-0.22183-0.0845-0.31755-0.13071-0.09573-0.047-0.17439-0.10645-0.2338-0.1722-0.05949-0.0626-0.08861-0.14637-0.08861-0.23874 0-0.0704 0.01957-0.12993 0.05871-0.18159 0.03992-0.0626 0.09565-0.10254 0.16492-0.13541 0.06888-0.0391 0.14723-0.0626 0.23631-0.0783 0.09236-0.0235 0.1906-0.0235 0.2929-0.0235 0.21776 0 0.4377 0.0235 0.66211 0.0884 0.2277 0.0548 0.44193 0.14089 0.63996 0.25595v-1.206c-0.22441-0.0626-0.45328-0.11663-0.68426-0.15028-0.23098-0.0391-0.45743-0.0548-0.68176-0.0548zm-13.855 2e-3c-0.8546 0-1.5315 0.2356-2.033 0.71151-0.50158 0.47198-0.75314 1.1285-0.75314 1.9665 0 0.81177 0.24194 1.4546 0.72364 1.9298 0.48506 0.47198 1.149 0.70602 1.9937 0.70602 0.8579 0 1.534-0.24265 2.0257-0.73107 0.49492-0.48843 0.74086-1.1548 0.74086-1.9962 0-0.77882-0.23779-1.4038-0.71628-1.8755-0.47848-0.47512-1.14-0.71151-1.9814-0.71151zm5.6635 0c-0.3102 0-0.65671 0.0391-1.0362 0.12837-0.37618 0.0861-0.67323 0.18551-0.891 0.29744v1.1765c0.54447-0.35927 1.1191-0.53852 1.7229-0.53852 0.60059 0 0.90084 0.27787 0.90084 0.83189l-1.3759 0.18159c-1.1648 0.15185-1.7475 0.72012-1.7475 1.7033 0 0.46495 0.14042 0.83706 0.42088 1.1174 0.28374 0.27709 0.67252 0.41563 1.1642 0.41563 0.6665 0 1.1689-0.28413 1.5088-0.85161h0.01957v0.72872h1.4792v-3.03c0-1.4419-0.72074-2.161-2.166-2.161zm19.934 0c-0.8546 0-1.5315 0.2356-2.0331 0.71151-0.50157 0.47198-0.75314 1.1285-0.75314 1.9665 0 0.81177 0.24194 1.4546 0.72363 1.9298 0.48506 0.47198 1.149 0.70602 1.9937 0.70602 0.85791 0 1.534-0.24265 2.0257-0.73107 0.49492-0.48843 0.74086-1.1548 0.74086-1.9962 0-0.77882-0.23779-1.4038-0.71628-1.8755-0.47848-0.47512-1.14-0.71151-1.9814-0.71151zm14.418 0c-0.71276 0-1.3134 0.24421-1.8017 0.73577-0.48835 0.49156-0.731 1.1595-0.731 2.001 0 0.81178 0.2248 1.4448 0.67683 1.9002 0.45203 0.45242 1.0868 0.67707 1.9051 0.67707 0.74899 0 1.3578-0.12368 1.8263-0.37415v-1.1298c-0.42236 0.26378-0.91177 0.39684-1.4694 0.39684-0.87438 0-1.3378-0.36867-1.3906-1.1051h3.3056v-0.65671c0-0.7522-0.2021-1.3481-0.60795-1.787-0.40256-0.43911-0.97397-0.65671-1.7131-0.65671zm5.7964 0c-0.86449 0-1.5569 0.24813-2.0749 0.74595-0.51473 0.49546-0.77037 1.1743-0.77037 2.0356 0 0.74594 0.23944 1.3544 0.72121 1.8263 0.48169 0.47198 1.1116 0.70602 1.8903 0.70602 0.6665 0 1.1779-0.10019 1.5309-0.30527v-1.2578c-0.37281 0.24422-0.75517 0.3671-1.1445 0.3671-0.43888 0-0.78299-0.12758-1.0338-0.38119-0.25079-0.25751-0.37657-0.61209-0.37657-1.0608 0-0.46181 0.13064-0.82226 0.39137-1.0829 0.26401-0.26378 0.61945-0.39685 1.0682-0.39685 0.40256 0 0.76865 0.12211 1.0953 0.36711v-1.3267c-0.26723-0.1589-0.69984-0.23561-1.2971-0.23561zm14.694 0c-0.71267 0-1.3133 0.24421-1.8017 0.73577s-0.73099 1.1595-0.73099 2.001c0 0.81178 0.2248 1.4448 0.6769 1.9002 0.45203 0.45242 1.0868 0.67707 1.9051 0.67707 0.74899 0 1.3578-0.12368 1.8263-0.37415v-1.1298c-0.42236 0.26378-0.91177 0.39684-1.4694 0.39684-0.87439 0-1.3378-0.36867-1.3906-1.1051h3.3056v-0.65671c0-0.7522-0.20202-1.3481-0.60795-1.787-0.40256-0.43911-0.97396-0.65671-1.7131-0.65671zm14.864 0c-0.8546 0-1.534 0.2356-2.0355 0.71151-0.50157 0.47198-0.75071 1.1285-0.75071 1.9665 0 0.81177 0.23943 1.4546 0.72113 1.9298 0.48505 0.47198 1.1514 0.70602 1.9961 0.70602 0.85789 0 1.5316-0.24265 2.0232-0.73107 0.49492-0.48843 0.74328-1.1548 0.74328-1.9962 0-0.77882-0.2403-1.4038-0.71871-1.8755-0.47848-0.47512-1.1375-0.71151-1.9789-0.71151zm6.9335 0c-0.34651 0-0.66626 0.0845-0.9599 0.25596-0.29039 0.16828-0.51519 0.38901-0.67691 0.65984h-0.0227v-0.79252h-1.563v5.0679h1.563v-2.8158c0-0.36319 0.0804-0.65045 0.23873-0.8614 0.16163-0.21055 0.37508-0.31779 0.64239-0.31779 0.53124 0 0.79745 0.35928 0.79745 1.0756v2.9191h1.5654v-2.8354c0-0.32953 0.0795-0.60584 0.24116-0.82704 0.16171-0.22073 0.37031-0.33266 0.62767-0.33266 0.54111 0 0.81224 0.36867 0.81224 1.1051v2.8896h1.5605v-3.153c0-1.3594-0.55198-2.0379-1.654-2.0379-0.749 0-1.3172 0.31466-1.7032 0.94507-0.26402-0.6301-0.75338-0.94507-1.4694-0.94507zm9.2866 0c-0.34644 0-0.66869 0.0845-0.96238 0.25596-0.29039 0.16828-0.51511 0.38901-0.67682 0.65984h-0.0196v-0.79252h-1.5651v5.0679h1.5654v-2.8158c0-0.36319 0.0775-0.65045 0.23631-0.8614 0.16163-0.21055 0.37759-0.31779 0.64481-0.31779 0.53124 0 0.79747 0.35928 0.79747 1.0756v2.9191h1.5629v-2.8354c0-0.32953 0.0795-0.60584 0.24116-0.82704 0.16171-0.22073 0.37273-0.33266 0.6301-0.33266 0.5411 0 0.81224 0.36867 0.81224 1.1051v2.8896h1.558v-3.153c0-1.3594-0.54948-2.0379-1.6516-2.0379-0.749 0-1.3172 0.31466-1.7032 0.94507-0.26402-0.6301-0.75338-0.94507-1.4694-0.94507zm-34.395 0.0313c-0.64341 0-1.089 0.34206-1.3365 1.0289h-0.0196v-0.94021h-1.5652v5.0678h1.5654v-2.4194c0-0.42894 0.0966-0.7663 0.28797-1.0141 0.19138-0.25126 0.45516-0.37649 0.79501-0.37649 0.25079 0 0.4716 0.0548 0.65961 0.15263v-1.44c-0.0924-0.0391-0.22143-0.0626-0.38643-0.0626zm-9.1364 0.0885v3.0594c0 1.4222 0.58768 2.1315 1.7623 2.1315 0.64669 0 1.1621-0.29901 1.5482-0.89599h0.0243v0.77255h1.5605v-5.0678h-1.5605v2.8994c0 0.33658-0.0827 0.60427-0.25102 0.80238-0.16829 0.1949-0.39395 0.29274-0.6744 0.29274-0.56748 0-0.85163-0.35927-0.85163-1.0756v-2.9191zm49.593 0v5.0678h1.563v-5.0678zm-57.647 0.93028c0.58736 0 0.88115 0.3624 0.88115 1.0879h-1.8657c0.0399-0.30997 0.15076-0.5667 0.33227-0.77491 0.18481-0.20821 0.40154-0.31309 0.65225-0.31309zm20.49 0c0.58736 0 0.88116 0.3624 0.88116 1.0879h-1.8657c0.0399-0.30997 0.15075-0.5667 0.33227-0.77491 0.1848-0.20821 0.40154-0.31309 0.65225-0.31309zm-60.526 0.14245c0.75557 0 1.1347 0.47356 1.1347 1.4202 0 0.99978-0.37579 1.5014-1.1248 1.5014-0.7853 0-1.1765-0.48843-1.1765-1.4621 0-0.46494 0.10058-0.82406 0.30526-1.078 0.20461-0.25361 0.49187-0.38119 0.86147-0.38119zm25.598 0c0.75557 0 1.1347 0.47356 1.1347 1.4202 0 0.99978-0.37579 1.5014-1.1248 1.5014-0.78529 0-1.1765-0.48843-1.1765-1.4621 0-0.46494 0.10058-0.82406 0.30526-1.078 0.20461-0.25361 0.49187-0.38119 0.86147-0.38119zm49.773 0c0.75557 0 1.1322 0.47356 1.1322 1.4202 0 0.99978-0.37336 1.5014-1.1224 1.5014-0.78531 0-1.179-0.48843-1.179-1.4621 0-0.46494 0.10309-0.82406 0.30769-1.078 0.20453-0.25361 0.49187-0.38119 0.86146-0.38119zm-68.981 1.5949v0.34205c-5.17e-4 0.30918-0.09142 0.5667-0.27568 0.77021-0.1848 0.20116-0.4251 0.30292-0.7187 0.30292-0.21118 0-0.37923-0.0626-0.50455-0.16986-0.12211-0.11584-0.18465-0.26221-0.18465-0.43989 0-0.39293 0.25486-0.62071 0.76301-0.68646z" fill="#333"/>
 </g>
</svg>
