<?xml version="1.0" encoding="UTF-8"?>
<svg id="svg856" width="1.5em" version="1.1" viewBox="0 0 69.638 69.638" xmlns="http://www.w3.org/2000/svg">
    <style> #logo { fill: #ff5a00; } #circle { fill: #000; } @media (prefers-color-scheme: dark) { #logo { fill: #000; } #circle { fill: #ff5a00; } } </style>
    <g id="layer1" transform="translate(-35.553 -39.848)">
	<g id="g1429">
	    <circle id="circle" cx="70.372" cy="74.667" r="34.819" />
	    <path id="logo" d="m66.428 47.89v33.074h-15.719v-33.059c-3.5594 4.4016-5.6788 11.511-5.6863 19.096-6.77e-4 12.98 6.0656 23.504 13.546 23.503 7.4802 0.0011 13.54-10.523 13.539-23.503-0.0049-7.5888-2.1184-14.707-5.6797-19.111zm18.278 26.47c-7.4802-6.77e-4 -13.54 6.0593-13.539 13.539-5.44e-4 7.4805 6.0593 13.546 13.539 13.546 4.3728-6e-3 8.4776-2.1239 11.015-5.684h-18.364l7.8141-15.721h10.541c-2.5363-3.5596-6.6363-5.6725-11.007-5.6797zm-30.266 7.8315c1.0115 4.53e-4 1.8303 0.81945 1.8334 1.8312-4.53e-4 1.0133-0.82008 1.8351-1.8334 1.8355-1.0133-4.53e-4 -1.8351-0.82195-1.8355-1.8355 0.0029-1.0115 0.82408-1.8307 1.8355-1.8312zm8.2687 0c1.0134-0.0022 1.8368 0.8177 1.8399 1.8312-4.55e-4 1.0151-0.82422 1.8377-1.8399 1.8355-1.0134-4.53e-4 -1.8351-0.82195-1.8355-1.8355 0.0029-1.0115 0.82399-1.8307 1.8355-1.8312zm14.842 0.22946c1.3302-0.0023 2.4089 1.0769 2.4091 2.407-0.0029 1.3284-1.0808 2.4028-2.4091 2.4005-1.3248-0.0029-2.3978-1.0757-2.4005-2.4005 2.99e-4 -1.3266 1.074-2.4042 2.4005-2.407z" />
	</g>
    </g>
</svg>
